<?xml version="1.0" standalone="no"?>
<!DOCTYPE svg PUBLIC "-//W3C//DTD SVG 20010904//EN"
 "http://www.w3.org/TR/2001/REC-SVG-20010904/DTD/svg10.dtd">
<svg version="1.0" xmlns="http://www.w3.org/2000/svg"
 width="500.000000pt" height="500.000000pt" viewBox="0 0 500.000000 500.000000"
 preserveAspectRatio="xMidYMid meet">
<metadata>
Created by potrace 1.14, written by Peter Selinger 2001-2017
</metadata>
<g transform="translate(0.000000,500.000000) scale(0.100000,-0.100000)"
fill="#000000" stroke="none">
<path d="M0 2500 l0 -2500 2500 0 2500 0 0 2500 0 2500 -2500 0 -2500 0 0
-2500z m1024 2341 c4 -5 3 -16 0 -25 -5 -12 -10 -14 -20 -6 -7 7 -10 18 -7 26
6 16 19 18 27 5z m-18 -122 c19 -11 34 -24 34 -27 0 -4 -13 -21 -28 -39 l-27
-32 -33 27 -32 27 22 32 c13 18 25 33 27 33 2 0 19 -9 37 -21z m-106 -147 c0
-4 -6 -14 -13 -23 -10 -14 -16 -15 -30 -4 -20 14 -21 27 -5 43 11 11 48 -1 48
-16z m122 -83 c26 -17 48 -33 48 -36 0 -3 -16 -27 -36 -55 -40 -54 -28 -54
-109 -2 -14 9 -25 21 -25 26 0 12 59 98 67 98 3 0 28 -14 55 -31z m-85 -196
c2 -5 -4 -20 -14 -32 -18 -21 -18 -21 -46 -3 l-27 19 21 27 c19 24 23 26 42
13 12 -7 22 -18 24 -24z m158 1 c23 -15 23 -17 8 -40 -17 -27 -30 -29 -56 -10
-18 14 -18 16 -2 40 20 31 19 30 50 10z m-166 -153 l24 -19 -20 -32 -20 -32
-28 24 c-27 24 -28 25 -10 51 20 32 23 32 54 8z m268 -61 l22 -17 -45 -64
c-25 -35 -50 -63 -56 -61 -6 2 -37 21 -69 44 l-58 40 47 68 47 67 45 -30 c25
-17 55 -38 67 -47z m127 -189 c-39 -66 -38 -65 -83 -35 -23 14 -41 29 -41 32
0 3 12 24 27 48 l27 42 43 -30 c42 -30 42 -31 27 -57z m243 -3 c49 -34 90 -63
92 -65 9 -7 -124 -193 -135 -189 -6 2 -51 32 -98 66 l-87 61 34 47 c19 26 48
68 66 95 18 26 34 47 36 47 3 0 44 -28 92 -62z m-474 -43 c20 -14 37 -28 37
-32 0 -3 -12 -25 -27 -49 l-27 -42 -43 29 c-24 17 -43 32 -43 35 0 9 53 84 59
84 3 0 23 -11 44 -25z m-360 -19 c15 -12 16 -18 7 -35 -13 -25 -20 -26 -44 -8
-15 11 -17 17 -7 35 14 25 19 26 44 8z m551 -131 l65 -46 -45 -64 c-25 -36
-48 -65 -50 -65 -3 0 -34 19 -69 43 l-64 43 46 67 c26 37 48 67 49 67 2 0 32
-20 68 -45z m-504 -58 c0 -15 -41 -77 -50 -77 -13 0 -80 41 -80 49 0 3 12 23
26 44 l25 38 40 -23 c21 -12 39 -26 39 -31z m1025 7 l54 -36 -36 -54 c-20 -30
-39 -54 -42 -54 -3 0 -29 16 -58 36 l-51 35 36 54 c21 30 38 54 40 55 1 0 27
-16 57 -36z m275 -74 c32 -22 61 -44 64 -48 3 -5 -16 -40 -42 -79 l-47 -71
-69 46 c-37 26 -68 50 -69 54 -3 12 85 138 95 138 5 0 36 -18 68 -40z m1363
12 c31 -11 85 -39 118 -61 55 -37 68 -41 123 -41 158 0 352 -38 496 -95 82
-33 223 -105 217 -111 -2 -2 -45 6 -97 16 -136 29 -324 36 -430 16 -292 -53
-464 -285 -566 -763 -4 -22 -9 -23 -108 -23 l-104 0 -36 106 c-76 219 -195
417 -347 578 -105 111 -106 97 13 186 139 105 249 162 388 201 90 25 252 21
333 -9z m-1833 -192 c0 -4 -27 -45 -60 -93 l-61 -86 -87 61 c-48 34 -88 62
-89 63 -1 0 26 42 60 91 l62 91 88 -60 c48 -34 87 -64 87 -67z m-896 58 c28
-17 53 -33 55 -35 2 -1 -13 -28 -33 -58 l-37 -56 -29 18 c-17 10 -41 27 -55
38 l-24 20 32 52 c18 29 34 53 36 53 2 0 27 -14 55 -32z m166 -16 c0 -15 -31
-52 -43 -52 -7 0 -22 8 -34 18 l-23 17 20 33 20 33 30 -21 c17 -12 30 -25 30
-28z m1468 -67 c180 -142 330 -306 455 -495 63 -95 154 -270 172 -327 l6 -23
-297 0 -297 0 -67 63 c-163 154 -349 276 -603 397 -101 48 -135 69 -131 80 10
28 216 350 224 350 4 0 72 -43 151 -95 79 -52 146 -91 149 -87 4 4 37 51 74
105 37 53 70 97 74 97 4 0 45 -29 90 -65z m-1335 -60 l37 -26 -26 -39 -26 -39
-39 22 c-21 12 -39 25 -39 29 0 11 41 78 49 78 3 0 23 -11 44 -25z m-185 -30
c21 -15 21 -17 6 -40 -19 -30 -25 -30 -53 -7 -20 16 -21 18 -6 40 19 26 24 27
53 7z m325 -139 c53 -34 56 -39 46 -59 -22 -40 -70 -107 -78 -107 -4 0 -36 18
-69 40 l-62 39 42 66 c22 36 46 64 53 61 6 -2 37 -20 68 -40z m-243 -87 c0
-12 -60 -109 -68 -109 -12 0 -112 64 -112 72 0 4 16 32 35 63 l36 55 54 -36
c30 -20 55 -41 55 -45z m514 -76 c42 -27 76 -51 76 -55 0 -11 -94 -158 -102
-158 -3 0 -41 21 -82 48 -51 32 -74 52 -70 61 9 25 89 150 96 151 3 0 41 -21
82 -47z m-439 -75 c19 -13 35 -26 35 -31 0 -4 -12 -25 -26 -47 -26 -39 -27
-39 -53 -24 -67 40 -67 39 -37 84 14 22 31 40 36 40 6 0 26 -10 45 -22z m205
-10 c22 -13 40 -26 40 -31 0 -4 -11 -25 -25 -48 -26 -39 -26 -40 -53 -24 -67
40 -66 39 -36 84 14 23 29 41 31 41 2 0 22 -10 43 -22z m610 -85 c33 -21 60
-41 60 -44 0 -3 -18 -34 -40 -68 -27 -41 -44 -60 -53 -55 -69 42 -118 77 -115
82 12 27 74 121 81 122 4 0 34 -17 67 -37z m346 -172 c49 -33 103 -71 119 -85
l30 -25 -228 -1 c-126 0 -227 4 -225 8 2 5 30 54 63 109 l60 101 46 -23 c25
-13 86 -51 135 -84z m-1068 52 c15 -9 28 -18 30 -19 8 -5 -30 -64 -41 -64 -6
0 -23 9 -36 19 -24 18 -24 18 -5 50 10 17 20 31 22 31 1 0 15 -8 30 -17z m223
-29 l59 -36 -21 -38 c-12 -21 -31 -49 -43 -64 l-21 -26 -62 40 -62 40 37 60
c20 32 41 59 46 60 4 0 35 -16 67 -36z m357 -83 c26 -16 41 -32 39 -41 -6 -22
-116 -190 -125 -190 -4 0 -51 28 -104 63 l-97 62 66 102 65 102 56 -36 c32
-20 76 -48 100 -62z m748 -153 c97 -105 172 -216 241 -352 72 -145 74 -136 6
26 -48 116 -117 236 -189 329 l-45 59 290 0 290 0 21 -66 c65 -213 88 -504 56
-723 -61 -411 -219 -727 -504 -1003 -153 -149 -303 -253 -532 -370 -139 -71
-437 -182 -366 -135 281 181 395 298 501 512 48 96 52 102 70 89 10 -8 24 -14
31 -14 12 0 74 89 74 107 0 6 -20 24 -45 40 l-45 29 64 101 64 101 -52 35 -52
35 -12 90 c-34 253 -165 502 -385 728 l-59 61 61 98 c72 114 74 106 -43 175
l-73 43 19 34 20 33 268 0 268 0 58 -62z m884 42 c0 -72 -59 -380 -91 -477
-21 -64 -43 -87 -33 -35 12 60 -34 444 -62 517 -5 13 9 15 90 15 89 0 96 -1
96 -20z m-1484 -172 l34 -20 -36 -56 c-20 -32 -38 -58 -39 -60 -4 -5 -115 70
-115 77 0 3 16 30 36 59 l35 53 26 -17 c15 -9 41 -25 59 -36z m358 -1341 c15
-11 16 -17 5 -40 -14 -32 -17 -32 -48 -8 -21 16 -22 20 -10 39 16 25 28 27 53
9z m-441 -93 c31 -19 57 -38 57 -41 0 -9 -71 -123 -76 -123 -3 0 -32 18 -64
40 l-59 40 37 60 c20 33 39 60 42 60 3 0 31 -16 63 -36z m298 -103 l56 -34
-36 -58 c-20 -33 -38 -59 -41 -59 -3 0 -31 16 -62 35 l-57 36 37 59 c20 32 39
58 42 57 3 -1 30 -17 61 -36z m-144 -262 c-14 -22 -27 -24 -50 -6 -16 11 -16
14 -2 34 15 21 17 22 40 7 21 -13 22 -19 12 -35z m-255 -70 c29 -19 45 -36 41
-43 -4 -6 -19 -30 -33 -53 l-27 -42 -51 35 -51 34 31 50 c17 27 33 50 36 50 3
0 27 -14 54 -31z m-346 -180 c19 -11 34 -24 34 -27 0 -4 -11 -20 -24 -37 l-24
-29 -36 19 c-20 11 -36 21 -36 22 0 7 43 73 47 73 3 0 21 -9 39 -21z"/>
</g>
</svg>
